<?xml version="1.0" encoding="UTF-8"?>
<svg version="1.1" xmlns="http://www.w3.org/2000/svg" width="208" height="66">
<path d="M0 0 C68.64 0 137.28 0 208 0 C208 21.78 208 43.56 208 66 C139.36 66 70.72 66 0 66 C0 44.22 0 22.44 0 0 Z " fill="#FDFEFD" transform="translate(0,0)"/>
<path d="M0 0 C3.3258409 2.062783 6.23502468 4.47004936 8 8 C8.79674298 14.71540516 8.79674298 14.71540516 6.73046875 18.046875 C3.40766769 21.95985727 1.56547947 23.81426515 -3.6875 24.4375 C-8.22744391 24.41264629 -10.43982485 22.53738613 -13.65234375 19.5078125 C-16.20699781 16.64956187 -16.44655204 13.96600649 -16.42578125 10.171875 C-15.65151767 6.2224204 -12.92865376 3.61757913 -10 1 C-6.7374887 -0.63125565 -3.5120384 -0.68851113 0 0 Z " fill="#20AB60" transform="translate(25,20)"/>
<path d="M0 0 C1.32 0 2.64 0 4 0 C4.33 1.65 4.66 3.3 5 5 C6.134375 5.12375 7.26875 5.2475 8.4375 5.375 C9.613125 5.58125 10.78875 5.7875 12 6 C13.52491998 9.04983996 13.23562548 11.6423369 13 15 C11.80859375 16.7109375 11.80859375 16.7109375 10 18 C7.51953125 18.29296875 7.51953125 18.29296875 4.8125 18.1875 C3.224375 18.125625 1.63625 18.06375 0 18 C0 12.06 0 6.12 0 0 Z " fill="#49B273" transform="translate(86,17)"/>
<path d="M0 0 C2 1.5625 2 1.5625 3 4 C2.67272727 10.32727273 2.67272727 10.32727273 0 13 C-6.00458716 13.54587156 -6.00458716 13.54587156 -8.9375 11.9375 C-10.6140629 8.88023824 -10.36528977 6.4093712 -10 3 C-7.7810369 -1.04634448 -4.19567567 -0.52445946 0 0 Z " fill="#34AE70" transform="translate(111,22)"/>
<path d="M0 0 C4.60635172 1.39059675 4.60635172 1.39059675 6.3125 4 C6.3125 4.99 6.3125 5.98 6.3125 7 C4.9925 7 3.6725 7 2.3125 7 C1.9825 6.34 1.6525 5.68 1.3125 5 C-0.35361905 4.957279 -2.02132885 4.95936168 -3.6875 5 C-5.10327477 6.18424326 -5.10327477 6.18424326 -4.75 9.5625 C-4.729375 10.696875 -4.70875 11.83125 -4.6875 13 C-1.21602158 13.74957157 -1.21602158 13.74957157 2.3125 14 C2.3125 13.34 2.3125 12.68 2.3125 12 C3.6325 12 4.9525 12 6.3125 12 C5.16076645 14.46800047 4.26466435 16.04783565 2.3125 18 C-1.989817 18.56823055 -4.0006706 18.46762853 -7.625 16 C-9.90463788 12.68416309 -10.50417462 10.89097289 -10.234375 6.94140625 C-8.77617865 1.76480919 -5.01576429 0 0 0 Z " fill="#44B37B" transform="translate(53.6875,17)"/>
<path d="M0 0 C1.32 0 2.64 0 4 0 C4.33 1.32 4.66 2.64 5 4 C7.31 4.33 9.62 4.66 12 5 C12 8.96 12 12.92 12 17 C11.01 17 10.02 17 9 17 C8.67 14.03 8.34 11.06 8 8 C6.68 7.67 5.36 7.34 4 7 C4 10.3 4 13.6 4 17 C2.68 17 1.36 17 0 17 C0 11.39 0 5.78 0 0 Z " fill="#3EA364" transform="translate(145,18)"/>
<path d="M0 0 C3.375 -0.125 3.375 -0.125 7 0 C9 2 9 2 9.1953125 4.6015625 C9.17210937 5.59929688 9.14890625 6.59703125 9.125 7.625 C9.10695312 8.62789062 9.08890625 9.63078125 9.0703125 10.6640625 C9.03550781 11.82035156 9.03550781 11.82035156 9 13 C7.35425434 13.02688151 5.70838587 13.04634123 4.0625 13.0625 C3.14597656 13.07410156 2.22945312 13.08570313 1.28515625 13.09765625 C-1 13 -1 13 -2 12 C-2.25 9.5625 -2.25 9.5625 -2 7 C1.22791555 4.8480563 2.28400809 4.79913557 6 5 C5.67 4.34 5.34 3.68 5 3 C2.69 3.33 0.38 3.66 -2 4 C-1.34 2.68 -0.68 1.36 0 0 Z " fill="#289D58" transform="translate(162,22)"/>
<path d="M0 0 C3.375 -0.125 3.375 -0.125 7 0 C9 2 9 2 9.1953125 4.6015625 C9.17210938 5.59929688 9.14890625 6.59703125 9.125 7.625 C9.10695313 8.62789062 9.08890625 9.63078125 9.0703125 10.6640625 C9.03550781 11.82035156 9.03550781 11.82035156 9 13 C7.35425434 13.02688151 5.70838587 13.04634123 4.0625 13.0625 C3.14597656 13.07410156 2.22945313 13.08570313 1.28515625 13.09765625 C-1 13 -1 13 -2 12 C-2.25 9.5625 -2.25 9.5625 -2 7 C1.22791555 4.8480563 2.28400809 4.79913557 6 5 C5.67 4.34 5.34 3.68 5 3 C2.69 3.33 0.38 3.66 -2 4 C-1.34 2.68 -0.68 1.36 0 0 Z " fill="#2DAC63" transform="translate(64,22)"/>
<path d="M0 0 C1.60875 -0.020625 3.2175 -0.04125 4.875 -0.0625 C5.77992187 -0.07410156 6.68484375 -0.08570312 7.6171875 -0.09765625 C10 0 10 0 12 1 C12 4.96 12 8.92 12 13 C11.01 13 10.02 13 9 13 C8.67 10.03 8.34 7.06 8 4 C6.68 3.67 5.36 3.34 4 3 C4 6.3 4 9.6 4 13 C2.68 13 1.36 13 0 13 C0 8.71 0 4.42 0 0 Z " fill="#42B06F" transform="translate(116,22)"/>
<path d="M0 0 C1.32 0.33 2.64 0.66 4 1 C4.33 0.67 4.66 0.34 5 0 C7.4375 -0.1875 7.4375 -0.1875 10 0 C12 2 12 2 12.1953125 4.6015625 C12.17210937 5.59929688 12.14890625 6.59703125 12.125 7.625 C12.10695312 8.62789062 12.08890625 9.63078125 12.0703125 10.6640625 C12.03550781 11.82035156 12.03550781 11.82035156 12 13 C10.68 13 9.36 13 8 13 C8 9.7 8 6.4 8 3 C6.68 3.33 5.36 3.66 4 4 C3.67 6.97 3.34 9.94 3 13 C2.01 13 1.02 13 0 13 C0 8.71 0 4.42 0 0 Z " fill="#32A166" transform="translate(181,22)"/>
<path d="M0 0 C0.99 0.66 1.98 1.32 3 2 C2.67 2.99 2.34 3.98 2 5 C-0.31 4.34 -2.62 3.68 -5 3 C-5 5.31 -5 7.62 -5 10 C-2.69 9.34 -0.38 8.68 2 8 C2.33 8.66 2.66 9.32 3 10 C2.01 11.485 2.01 11.485 1 13 C-2.39471203 13.37033222 -4.88907484 13.60921702 -7.9375 11.9375 C-9.6140629 8.88023824 -9.36528977 6.4093712 -9 3 C-6.83464775 -0.72921777 -4.01926187 -0.41867311 0 0 Z " fill="#2FA269" transform="translate(140,22)"/>
<path d="M0 0 C0.33 0 0.66 0 1 0 C1.66 2.31 2.32 4.62 3 7 C6.47147842 7.74957157 6.47147842 7.74957157 10 8 C10 7.34 10 6.68 10 6 C11.32 6 12.64 6 14 6 C12.84826645 8.46800047 11.95216435 10.04783565 10 12 C6.47013492 12.32683936 3.86224134 12.35374004 0.5625 11 C-1.95636861 7.77584818 -1.32341791 5.01038204 -1 1 C-0.67 0.67 -0.34 0.34 0 0 Z " fill="#27AC67" transform="translate(46,23)"/>
<path d="M0 0 C2.64 0 5.28 0 8 0 C8 0.99 8 1.98 8 3 C7.01 3.33 6.02 3.66 5 4 C4.67 6.97 4.34 9.94 4 13 C2.68 13 1.36 13 0 13 C0 8.71 0 4.42 0 0 Z " fill="#3FB06E" transform="translate(76,22)"/>
<path d="M0 0 C3.5 0.3125 3.5 0.3125 7 1 C8.52491998 4.04983996 8.23562548 6.6423369 8 10 C6.8125 11.9375 6.8125 11.9375 5 13 C2.3125 13.1875 2.3125 13.1875 0 13 C0 12.34 0 11.68 0 11 C0.99 10.67 1.98 10.34 3 10 C3 7.69 3 5.38 3 3 C1.68 2.34 0.36 1.68 -1 1 C-0.67 0.67 -0.34 0.34 0 0 Z " fill="#2FAE6D" transform="translate(91,22)"/>
<path d="M0 0 C1.32 0 2.64 0 4 0 C4 4.29 4 8.58 4 13 C2.68 13 1.36 13 0 13 C0 8.71 0 4.42 0 0 Z " fill="#33A475" transform="translate(174,22)"/>
<path d="M0 0 C2.33944736 0.28730055 4.6739143 0.61936779 7 1 C7 4.96 7 8.92 7 13 C6.01 13 5.02 13 4 13 C3.97421875 12.38511719 3.9484375 11.77023438 3.921875 11.13671875 C3.7185352 6.00745409 3.7185352 6.00745409 0.9375 1.9375 C0.298125 1.628125 -0.34125 1.31875 -1 1 C-0.67 0.67 -0.34 0.34 0 0 Z " fill="#279C58" transform="translate(150,22)"/>
<path d="M0 0 C2.33944736 0.28730055 4.6739143 0.61936779 7 1 C7 4.96 7 8.92 7 13 C6.01 13 5.02 13 4 13 C3.67 9.37 3.34 5.74 3 2 C1.68 1.67 0.36 1.34 -1 1 C-0.67 0.67 -0.34 0.34 0 0 Z " fill="#2BAB63" transform="translate(121,22)"/>
<path d="M0 0 C2.6875 0.875 2.6875 0.875 5 2 C5 2.99 5 3.98 5 5 C4.34 5 3.68 5 3 5 C3.33 5.99 3.66 6.98 4 8 C2.00045254 8.04254356 -0.00041636 8.04080783 -2 8 C-3 7 -3 7 -3.25 4.5625 C-3.1675 3.716875 -3.085 2.87125 -3 2 C-2.01 1.34 -1.02 0.68 0 0 Z " fill="#66B889" transform="translate(163,27)"/>
<path d="M0 0 C2.6875 0.875 2.6875 0.875 5 2 C5 2.99 5 3.98 5 5 C4.34 5 3.68 5 3 5 C3.33 5.99 3.66 6.98 4 8 C2.00045254 8.04254356 -0.00041636 8.04080783 -2 8 C-3 7 -3 7 -3.25 4.5625 C-3.1675 3.716875 -3.085 2.87125 -3 2 C-2.01 1.34 -1.02 0.68 0 0 Z " fill="#69C191" transform="translate(65,27)"/>
<path d="M0 0 C0.99 0 1.98 0 3 0 C3.96661363 3.12180401 3.98988909 5.52083795 3.5625 8.75 C3.40974609 9.94882812 3.40974609 9.94882812 3.25390625 11.171875 C3.12822266 12.07679687 3.12822266 12.07679687 3 13 C2.01 13 1.02 13 0 13 C0 8.71 0 4.42 0 0 Z " fill="#229A54" transform="translate(181,22)"/>
<path d="M0 0 C2.475 0.495 2.475 0.495 5 1 C5 2.65 5 4.3 5 6 C3.35 6.33 1.7 6.66 0 7 C0 4.69 0 2.38 0 0 Z " fill="#F4FBF7" transform="translate(105,25)"/>
<path d="M0 0 C1.32 0 2.64 0 4 0 C4 2.31 4 4.62 4 7 C2.35 6.67 0.7 6.34 -1 6 C-1.042721 4.33388095 -1.04063832 2.66617115 -1 1 C-0.67 0.67 -0.34 0.34 0 0 Z " fill="#F3FAF4" transform="translate(91,25)"/>
<path d="M0 0 C2.0625 0.4375 2.0625 0.4375 4 1 C4 1.66 4 2.32 4 3 C2.88625 3.2475 1.7725 3.495 0.625 3.75 C-3.04615198 4.61005339 -3.04615198 4.61005339 -4.4375 7.125 C-4.623125 7.74375 -4.80875 8.3625 -5 9 C-5.33 6.36 -5.66 3.72 -6 1 C-4.7934375 1.0309375 -4.7934375 1.0309375 -3.5625 1.0625 C-1.06645115 1.29633621 -1.06645115 1.29633621 0 0 Z " fill="#EEF0DF" transform="translate(164,24)"/>
</svg>
