<?xml version="1.0" encoding="UTF-8"?>
<svg version="1.1" xmlns="http://www.w3.org/2000/svg" width="512" height="512">
<path d="M0 0 C1.45108658 0.00273422 1.45108658 0.00273422 2.93148804 0.00552368 C17.26440977 0.05095174 31.21023917 0.55983928 45.3125 3.3125 C46.65803955 3.55395752 46.65803955 3.55395752 48.03076172 3.80029297 C107.84088904 14.62287989 165.35495829 48.68064457 202.3125 97.3125 C202.72918945 97.85277832 203.14587891 98.39305664 203.57519531 98.94970703 C211.2584873 108.9447116 218.00092968 119.40459036 224.3125 130.3125 C224.70679199 130.98974121 225.10108398 131.66698242 225.50732422 132.36474609 C238.68961173 155.2833756 247.29510918 180.85822563 252.625 206.6875 C252.77243652 207.39817627 252.91987305 208.10885254 253.07177734 208.84106445 C256.05713787 224.48358366 256.6873098 240.11919606 256.625 256 C256.62226578 257.45108658 256.62226578 257.45108658 256.61947632 258.93148804 C256.57404826 273.26440977 256.06516072 287.21023917 253.3125 301.3125 C253.15152832 302.20952637 252.99055664 303.10655273 252.82470703 304.03076172 C244.93444853 347.63561969 225.24485057 388.77240471 196.3125 422.3125 C195.67828125 423.05757813 195.0440625 423.80265625 194.390625 424.5703125 C182.57948485 438.07529833 169.82889772 450.74668743 155.3125 461.3125 C154.16255169 462.16899066 153.01281411 463.02576433 151.86328125 463.8828125 C143.67160474 469.9234414 135.15604922 475.28255071 126.3125 480.3125 C125.68069824 480.67698242 125.04889648 481.04146484 124.39794922 481.41699219 C101.37828699 494.59268166 75.85904551 503.27606895 49.9375 508.625 C49.22682373 508.77243652 48.51614746 508.91987305 47.78393555 509.07177734 C32.14141634 512.05713787 16.50580394 512.6873098 0.625 512.625 C-0.34239105 512.62317719 -1.3097821 512.62135437 -2.30648804 512.61947632 C-16.63940977 512.57404826 -30.58523917 512.06516072 -44.6875 509.3125 C-45.58452637 509.15152832 -46.48155273 508.99055664 -47.40576172 508.82470703 C-91.00688156 500.93512494 -132.15276903 481.2475709 -165.6875 452.3125 C-166.82251953 451.34376953 -166.82251953 451.34376953 -167.98046875 450.35546875 C-180.1286432 439.71309817 -191.95381337 428.22416267 -201.6875 415.3125 C-202.10128906 414.77512207 -202.51507813 414.23774414 -202.94140625 413.68408203 C-210.62826589 403.6861221 -217.37363145 393.22438153 -223.6875 382.3125 C-224.08179199 381.63525879 -224.47608398 380.95801758 -224.88232422 380.26025391 C-238.06461173 357.3416244 -246.67010918 331.76677437 -252 305.9375 C-252.14743652 305.22682373 -252.29487305 304.51614746 -252.44677734 303.78393555 C-255.43213787 288.14141634 -256.0623098 272.50580394 -256 256.625 C-255.99817719 255.65760895 -255.99635437 254.6902179 -255.99447632 253.69351196 C-255.94904826 239.36059023 -255.44016072 225.41476083 -252.6875 211.3125 C-252.44604248 209.96696045 -252.44604248 209.96696045 -252.19970703 208.59423828 C-241.37712011 148.78411096 -207.31935543 91.27004171 -158.6875 54.3125 C-158.14722168 53.89581055 -157.60694336 53.47912109 -157.05029297 53.04980469 C-147.0552884 45.3665127 -136.59540964 38.62407032 -125.6875 32.3125 C-125.01025879 31.91820801 -124.33301758 31.52391602 -123.63525391 31.11767578 C-100.7166244 17.93538827 -75.14177437 9.32989082 -49.3125 4 C-48.60182373 3.85256348 -47.89114746 3.70512695 -47.15893555 3.55322266 C-31.51641634 0.56786213 -15.88080394 -0.0623098 0 0 Z " fill="#FED83B" transform="translate(255.6875,-0.3125)"/>
<path d="M0 0 C3.93152962 1.62328073 6.75997068 4.31236752 9.8125 7.1875 C10.65312988 7.97338501 10.65312988 7.97338501 11.51074219 8.77514648 C21.9728936 18.6226393 32.28817769 28.53624827 41 40 C41.62503418 40.81041748 41.62503418 40.81041748 42.26269531 41.63720703 C49.9459873 51.6322116 56.68842968 62.09209036 63 73 C63.39429199 73.67724121 63.78858398 74.35448242 64.19482422 75.05224609 C77.37711173 97.9708756 85.98260918 123.54572563 91.3125 149.375 C91.45993652 150.08567627 91.60737305 150.79635254 91.75927734 151.52856445 C94.74463787 167.17108366 95.3748098 182.80669606 95.3125 198.6875 C95.30976578 200.13858658 95.30976578 200.13858658 95.30697632 201.61898804 C95.26154826 215.95190977 94.75266072 229.89773917 92 244 C91.83902832 244.89702637 91.67805664 245.79405273 91.51220703 246.71826172 C83.62194853 290.32311969 63.93235057 331.45990471 35 365 C34.36578125 365.74507813 33.7315625 366.49015625 33.078125 367.2578125 C21.26698485 380.76279833 8.51639772 393.43418743 -6 404 C-7.14994831 404.85649066 -8.29968589 405.71326433 -9.44921875 406.5703125 C-17.64089526 412.6109414 -26.15645078 417.97005071 -35 423 C-35.63180176 423.36448242 -36.26360352 423.72896484 -36.91455078 424.10449219 C-59.93421301 437.28018166 -85.45345449 445.96356895 -111.375 451.3125 C-112.08567627 451.45993652 -112.79635254 451.60737305 -113.52856445 451.75927734 C-129.17108366 454.74463787 -144.80669606 455.3748098 -160.6875 455.3125 C-161.65489105 455.31067719 -162.6222821 455.30885437 -163.61898804 455.30697632 C-177.95190977 455.26154826 -191.89773917 454.75266072 -206 452 C-206.89702637 451.83902832 -207.79405273 451.67805664 -208.71826172 451.51220703 C-252.31938156 443.62262494 -293.46526903 423.9350709 -327 395 C-327.75667969 394.35417969 -328.51335937 393.70835937 -329.29296875 393.04296875 C-334.9988389 388.04435888 -340.37559387 382.72527474 -345.75 377.375 C-346.4713916 376.65828125 -347.1927832 375.9415625 -347.93603516 375.203125 C-352.16902289 370.95740795 -356.15810345 366.603027 -360 362 C-359.67 361.34 -359.34 360.68 -359 360 C-357.92298828 360.87398438 -357.92298828 360.87398438 -356.82421875 361.765625 C-322.52950307 389.12324908 -281.23677767 406.25959236 -238 413 C-236.95755127 413.17660156 -235.91510254 413.35320312 -234.84106445 413.53515625 C-223.34325753 415.30928916 -211.9249545 415.3989013 -200.3125 415.375 C-199.27364655 415.37412384 -198.23479309 415.37324768 -197.16445923 415.37234497 C-137.10778363 415.20551606 -79.73140972 394.08846794 -34 355 C-33.23945313 354.35160156 -32.47890625 353.70320313 -31.6953125 353.03515625 C-18.55316818 341.50812394 -6.31757435 329.12520223 4 315 C4.85806152 313.84894983 5.71613451 312.69790823 6.57421875 311.546875 C12.61236829 303.35569386 17.97095521 294.84195895 23 286 C23.36448242 285.36819824 23.72896484 284.73639648 24.10449219 284.08544922 C35.97984775 263.33764133 44.12979343 240.58542236 49.625 217.375 C49.91661011 216.17000854 49.91661011 216.17000854 50.21411133 214.94067383 C54.26740491 197.01840372 55.55388421 179.07695864 55.4375 160.75 C55.43293793 159.2136087 55.43293793 159.2136087 55.42828369 157.6461792 C55.358692 141.74989124 54.48482518 126.55875025 51 111 C50.77505859 109.94248535 50.55011719 108.8849707 50.31835938 107.79541016 C47.47329263 94.52431024 44.04901421 81.60553548 39 69 C38.68192383 68.19675293 38.36384766 67.39350586 38.03613281 66.56591797 C28.84672409 43.60112304 16.69481454 22.75970744 1.6171875 3.1953125 C0 1 0 1 0 0 Z " fill="#F4C534" transform="translate(417,57)"/>
<path d="M0 0 C0.83969052 -0.00382555 1.67938105 -0.00765109 2.54451674 -0.01159257 C5.36264222 -0.02192432 8.18056402 -0.01793006 10.998703 -0.01396179 C13.01746815 -0.01830822 15.03623164 -0.02349114 17.05499268 -0.02944946 C22.54267265 -0.04285955 28.03028383 -0.04341579 33.517977 -0.04088616 C38.09798351 -0.0398176 42.67797605 -0.04469699 47.25797957 -0.04949158 C58.06381726 -0.06059418 68.86962018 -0.06102024 79.67546082 -0.05497742 C90.82375297 -0.0489389 101.97191888 -0.06124385 113.12018949 -0.08254749 C122.68973528 -0.10016203 132.25924088 -0.10616499 141.82880229 -0.10290974 C147.54500966 -0.10109617 153.26112702 -0.10374028 158.97731972 -0.11762428 C164.35436359 -0.13019519 169.73121074 -0.12826538 175.10825157 -0.11521339 C177.08069805 -0.1128463 179.05315834 -0.11558706 181.02558899 -0.12383652 C183.72065674 -0.13429453 186.41506334 -0.12621082 189.11010742 -0.11352539 C189.8885244 -0.12089968 190.66694138 -0.12827396 191.46894675 -0.13587171 C198.00651506 -0.07124889 202.59903103 1.43388948 207.68302917 5.76069641 C210.43335649 9.41561643 210.44342626 13.18483296 210.23771667 17.63179016 C209.36017309 22.31898725 207.01962906 24.69107677 203.10142231 27.39548492 C199.55616124 28.6974967 196.02983029 28.54961128 192.30123901 28.5415802 C191.44113073 28.54752244 190.58102244 28.55346469 189.69485027 28.559587 C186.80765124 28.57695483 183.92061812 28.57997689 181.03337097 28.58296204 C178.96534368 28.59221878 176.89731981 28.60226815 174.82929993 28.61305237 C169.20734656 28.63929937 163.58544096 28.65218985 157.96343589 28.66107368 C154.45167952 28.66693484 150.93993621 28.67514436 147.42818642 28.68408203 C136.44245358 28.71143062 125.45675059 28.73076502 114.47098607 28.73848581 C101.78602505 28.74744964 89.1014948 28.78255776 76.41666478 28.840487 C66.61357446 28.8837033 56.81060542 28.9038934 47.00742084 28.90656805 C41.15135158 28.90866524 35.29568729 28.92050309 29.43971825 28.95620728 C23.93120126 28.98913978 18.42339428 28.9934947 12.914814 28.97592926 C10.89397214 28.97438695 8.87309234 28.98309498 6.85234642 29.00284576 C4.09097482 29.02825103 1.3321246 29.01655722 -1.42922974 28.99568176 C-2.22710146 29.01179457 -3.02497318 29.02790738 -3.84702283 29.04450846 C-9.26208485 28.94889964 -12.0066597 27.45082664 -15.93582696 23.74266958 C-19.01622192 20.28073205 -18.70160089 16.5408179 -18.67243958 12.09663391 C-18.01338864 7.62494255 -15.74386927 5.00579656 -12.25447083 2.26069641 C-8.43249684 -0.30431376 -4.43278227 -0.02133833 0 0 Z " fill="#414546" transform="translate(160.2544708251953,329.7393035888672)"/>
<path d="M0 0 C7.50588903 7.25948358 12.01889717 15.93195504 12.3515625 26.35546875 C12.46832419 37.66189211 10.43400537 46.3282387 3 55.1875 C-2.35748149 60.30283543 -8.1538697 63.49536419 -15 66.1875 C-15.99 66.6825 -15.99 66.6825 -17 67.1875 C-30.39755488 68.08360839 -40.3143879 66.94486031 -50.96484375 58.09765625 C-59.08901732 50.47247222 -63.63084159 40.5706681 -64.1875 29.4375 C-63.98743819 18.77420546 -59.90932844 9.73480889 -52.8046875 1.8203125 C-37.66708535 -11.87561325 -16.06820736 -12.66302434 0 0 Z " fill="#3F4446" transform="translate(363,177.8125)"/>
<path d="M0 0 C10.08291613 -0.58761366 19.49959275 2.81318795 27.44921875 9.078125 C34.91255369 16.29645147 39.44060411 24.96926146 39.85180664 35.33203125 C40.02568746 46.51876922 37.82646203 55.44121012 30.5 64.1953125 C26.87252409 67.8573358 22.87880007 70.65457787 18.44921875 73.265625 C17.84851563 73.62785156 17.2478125 73.99007812 16.62890625 74.36328125 C9.1303106 77.97807512 -1.55666489 77.35525039 -9.55859375 75.609375 C-19.82728537 71.87530532 -27.72445886 64.45338949 -32.8046875 54.91015625 C-37.16440237 44.86914046 -37.37797161 32.83446227 -33.42578125 22.640625 C-28.18650051 11.92790572 -19.72945282 5.2730733 -8.55078125 1.265625 C-5.69878818 0.53604538 -2.92170123 0.30425066 0 0 Z " fill="#3F4446" transform="translate(172.55078125,168.734375)"/>
<path d="M0 0 C3.93508325 0.46295097 5.41118748 1.59868748 8.1875 4.375 C10.70276825 7.84846567 10.41984911 11.19271594 10.1875 15.375 C9.8575 16.035 9.5275 16.695 9.1875 17.375 C5.15104118 17.69158501 2.86416805 17.7960379 -0.625 15.625 C-3.93823456 12.21710159 -4.7318011 10.54513404 -5.0625 5.75 C-4.74954949 1.52516807 -4.23535816 0.56471442 0 0 Z " fill="#595E62" transform="translate(350.8125,182.625)"/>
<path d="M0 0 C3.93508325 0.46295097 5.41118748 1.59868748 8.1875 4.375 C10.70276825 7.84846567 10.41984911 11.19271594 10.1875 15.375 C9.8575 16.035 9.5275 16.695 9.1875 17.375 C6.125 17.875 6.125 17.875 2.1875 17.375 C-2.13705097 14.09401828 -4.5920113 10.89392214 -5.375 5.5 C-4.65659721 1.50887337 -4.06105912 0.54147455 0 0 Z " fill="#595E62" transform="translate(187.8125,182.625)"/>
</svg>
