<?xml version="1.0" encoding="UTF-8"?>
<svg version="1.1" xmlns="http://www.w3.org/2000/svg" width="512" height="512">
<path d="M0 0 C1.45108658 0.00273422 1.45108658 0.00273422 2.93148804 0.00552368 C17.26440977 0.05095174 31.21023917 0.55983928 45.3125 3.3125 C46.65803955 3.55395752 46.65803955 3.55395752 48.03076172 3.80029297 C107.84088904 14.62287989 165.35495829 48.68064457 202.3125 97.3125 C202.72918945 97.85277832 203.14587891 98.39305664 203.57519531 98.94970703 C211.2584873 108.9447116 218.00092968 119.40459036 224.3125 130.3125 C224.70679199 130.98974121 225.10108398 131.66698242 225.50732422 132.36474609 C238.68961173 155.2833756 247.29510918 180.85822563 252.625 206.6875 C252.77243652 207.39817627 252.91987305 208.10885254 253.07177734 208.84106445 C256.05713787 224.48358366 256.6873098 240.11919606 256.625 256 C256.62226578 257.45108658 256.62226578 257.45108658 256.61947632 258.93148804 C256.57404826 273.26440977 256.06516072 287.21023917 253.3125 301.3125 C253.15152832 302.20952637 252.99055664 303.10655273 252.82470703 304.03076172 C242.00212011 363.84088904 207.94435543 421.35495829 159.3125 458.3125 C158.77222168 458.72918945 158.23194336 459.14587891 157.67529297 459.57519531 C147.6802884 467.2584873 137.22040964 474.00092968 126.3125 480.3125 C125.63525879 480.70679199 124.95801758 481.10108398 124.26025391 481.50732422 C101.3416244 494.68961173 75.76677437 503.29510918 49.9375 508.625 C49.22682373 508.77243652 48.51614746 508.91987305 47.78393555 509.07177734 C32.14010685 512.05738779 16.5067517 512.68277669 0.625 512.625 C-0.33807068 512.62417419 -1.30114136 512.62334839 -2.293396 512.62249756 C-19.43594691 512.58869424 -35.70623694 511.20613825 -52.50610352 507.72949219 C-55.37079557 507.18188234 -57.78735346 506.90782839 -60.6875 507.3125 C-63.38183317 509.18447454 -63.38183317 509.18447454 -65.6875 511.3125 C-68.37503006 512.20834335 -69.93134291 512.44294543 -72.68797302 512.45967102 C-73.90502678 512.47040398 -73.90502678 512.47040398 -75.14666748 512.48135376 C-76.47676849 512.48538712 -76.47676849 512.48538712 -77.83374023 512.48950195 C-78.77075272 512.49607315 -79.7077652 512.50264435 -80.673172 512.50941467 C-83.78081341 512.52915621 -86.88840633 512.54081594 -89.99609375 512.55078125 C-91.05955584 512.55485678 -92.12301792 512.5589323 -93.21870613 512.56313133 C-98.85405407 512.58400171 -104.48937762 512.59829586 -110.12475586 512.60766602 C-115.92485175 512.61869608 -121.72456035 512.653054 -127.52451992 512.69283772 C-132.00033746 512.71909024 -136.47606424 512.72736581 -140.95195198 512.73094749 C-143.08840596 512.73579588 -145.22485637 512.74735949 -147.36123466 512.76598549 C-162.80565174 512.8922021 -175.01036451 512.00380318 -187.6875 502.3125 C-188.739375 501.52875 -189.79125 500.745 -190.875 499.9375 C-201.08814141 490.40523468 -206.4620325 478.03347342 -206.9440918 464.12597656 C-207.03715615 459.07870866 -207.01881234 454.03353135 -206.96875 448.98583984 C-206.93757254 445.81986606 -206.9277627 442.65439358 -206.921875 439.48828125 C-206.9128745 437.44009745 -206.90248437 435.39191924 -206.890625 433.34375 C-206.88268669 431.86115189 -206.88268669 431.86115189 -206.87458801 430.34860229 C-206.81916052 425.30537038 -206.51126208 420.47520628 -205.77734375 415.4765625 C-205.13752369 408.98881062 -208.18001682 405.17275439 -212 400.1875 C-213.30729099 398.35657171 -214.60931632 396.52187315 -215.90625 394.68359375 C-216.55207031 393.7797998 -217.19789063 392.87600586 -217.86328125 391.94482422 C-234.64534098 367.72852764 -244.92229585 338.299219 -251.125 309.75 C-251.35985107 308.67041016 -251.59470215 307.59082031 -251.83666992 306.47851562 C-255.21641452 289.91138548 -256.06619096 273.49499073 -256 256.625 C-255.99817719 255.65760895 -255.99635437 254.6902179 -255.99447632 253.69351196 C-255.94904826 239.36059023 -255.44016072 225.41476083 -252.6875 211.3125 C-252.44604248 209.96696045 -252.44604248 209.96696045 -252.19970703 208.59423828 C-241.37712011 148.78411096 -207.31935543 91.27004171 -158.6875 54.3125 C-158.14722168 53.89581055 -157.60694336 53.47912109 -157.05029297 53.04980469 C-147.0552884 45.3665127 -136.59540964 38.62407032 -125.6875 32.3125 C-125.01025879 31.91820801 -124.33301758 31.52391602 -123.63525391 31.11767578 C-100.7166244 17.93538827 -75.14177437 9.32989082 -49.3125 4 C-48.60182373 3.85256348 -47.89114746 3.70512695 -47.15893555 3.55322266 C-31.51641634 0.56786213 -15.88080394 -0.0623098 0 0 Z " fill="#FEE07C" transform="translate(255.6875,-0.3125)"/>
<path d="M0 0 C0 4.35750966 -2.6468664 6.66433967 -5.25 9.9375 C-44.8214758 61.39633912 -61.43613294 129.87960279 -53.34228516 193.91308594 C-48.67744981 227.82670243 -38.20506918 276.79493082 -13 302 C-12.10922669 298.93417799 -11.86600559 296.1791637 -11.84228516 292.99121094 C-11.82689194 291.4988089 -11.82689194 291.4988089 -11.81118774 289.97625732 C-11.80388641 288.90643616 -11.79658508 287.83661499 -11.7890625 286.734375 C-11.76098968 284.45962827 -11.73232519 282.18488878 -11.703125 279.91015625 C-11.66191449 276.33121985 -11.62501783 272.75241798 -11.59863281 269.17333984 C-11.57093323 265.7142357 -11.52505773 262.25574193 -11.4765625 258.796875 C-11.47330963 257.73515076 -11.47005676 256.67342651 -11.46670532 255.57952881 C-11.35376132 248.7104736 -10.86557552 242.43217795 -6.28125 236.94140625 C-5.6934375 236.48636719 -5.105625 236.03132812 -4.5 235.5625 C-3.9121875 235.08941406 -3.324375 234.61632812 -2.71875 234.12890625 C1.08218171 231.63238519 4.58173581 231.70544905 9 232 C15.58616327 234.0439817 18.58657884 237.05265788 22.11976624 242.83146667 C23.23624795 245.5820176 23.25877915 247.79134389 23.27124023 250.7590332 C23.28652016 252.4965258 23.28652016 252.4965258 23.30210876 254.26911926 C23.30424881 255.51706772 23.30638885 256.76501617 23.30859375 258.05078125 C23.3273141 260.01784938 23.34605143 261.98491752 23.36577702 263.95197582 C23.41107738 268.79592973 23.43471139 273.64002226 23.45629883 278.48413086 C23.46914403 281.20326683 23.48988024 283.92214457 23.51856995 286.64115906 C23.54475202 289.19868781 23.55870618 291.75637838 23.5589447 294.31404114 C23.66074112 303.22612717 24.86466785 309.66620625 31.16183758 316.30858707 C38.56823477 323.12369536 47.98049098 322.56461348 57.43041992 322.49829102 C58.97864808 322.50211963 60.52687268 322.50774329 62.0750885 322.51501465 C65.39320773 322.52691647 68.71101024 322.52651416 72.02913475 322.51642036 C77.27818978 322.50079808 82.52692236 322.5145788 87.7759552 322.53245544 C97.96655049 322.56320544 108.15704603 322.5647786 118.34767914 322.56280518 C131.32992865 322.56141006 144.31210195 322.57176686 157.29429513 322.6113829 C162.5103331 322.62630266 167.72608338 322.62605753 172.94212568 322.61390507 C176.18631517 322.60919164 179.43039467 322.61671725 182.67456627 322.62744904 C184.17657044 322.62985314 185.67859309 322.627127 187.18057632 322.61884117 C189.23425533 322.60819054 191.28709168 322.61599251 193.34074402 322.62818909 C194.48867023 322.62760278 195.63659643 322.62701647 196.81930828 322.62641239 C201.95584207 323.2297231 205.12740439 325.12740439 208.75 328.75 C211.78136523 333.12863866 213.09316717 336.71740427 212.875 342.0625 C211.15607356 347.8331816 207.90008684 351.60763219 203 355 C199.17897844 356.27367385 195.56468671 356.17709073 191.58129883 356.20532227 C190.72254654 356.21522186 189.86379425 356.22512146 188.97901917 356.23532104 C186.13838465 356.26692766 183.2977334 356.29169021 180.45703125 356.31640625 C178.48833276 356.3369765 176.51963868 356.35797299 174.5509491 356.37937927 C169.36751882 356.43459262 164.18404873 356.48400518 159.00054932 356.53222656 C153.71191868 356.58244694 148.42334591 356.63813021 143.13476562 356.69335938 C132.75655984 356.80093195 122.37830383 356.90237896 112 357 C112.56009766 357.47630859 113.12019531 357.95261719 113.69726562 358.44335938 C114.79071289 359.38405273 114.79071289 359.38405273 115.90625 360.34375 C116.63134766 360.96443359 117.35644531 361.58511719 118.10351562 362.22460938 C121.48713103 365.39217518 121.90304924 367.9335416 122.3125 372.4375 C121.82105821 378.03993637 119.84694365 381.44583281 115.8125 385.25 C112.08052738 388.29618278 108.70349309 389.17482577 104 390 C104.72316406 390.58007812 104.72316406 390.58007812 105.4609375 391.171875 C106.09257812 391.69265625 106.72421875 392.2134375 107.375 392.75 C108.00148437 393.26046875 108.62796875 393.7709375 109.2734375 394.296875 C111.11849882 396.11689024 112.06197059 397.59333869 113 400 C113 400.99 113 401.98 113 403 C113.64710938 403.11601562 114.29421875 403.23203125 114.9609375 403.3515625 C118.89961882 404.19194952 122.75028104 405.28096171 126.625 406.375 C128.92741463 407.02143184 131.23008301 407.66681469 133.53393555 408.30810547 C135.22540263 408.7826741 136.91427332 409.2665665 138.60083008 409.75830078 C145.48776957 411.72422364 152.36272 413.03523105 159.4375 414.125 C160.47970703 414.29386719 161.52191406 414.46273438 162.59570312 414.63671875 C213.65152906 422.67650783 266.75259106 413.70273949 313 391 C314.10698242 390.45690186 314.10698242 390.45690186 315.23632812 389.90283203 C331.27829025 381.9284429 346.03468198 372.19654192 360 361 C360.66 361.33 361.32 361.66 362 362 C335.20101191 390.92930934 335.20101191 390.92930934 322 401 C321.45827148 401.41813965 320.91654297 401.8362793 320.35839844 402.26708984 C310.36487138 409.94859789 299.90592393 416.68957865 289 423 C288.32275879 423.39429199 287.64551758 423.78858398 286.94775391 424.19482422 C264.0291244 437.37711173 238.45427437 445.98260918 212.625 451.3125 C211.91432373 451.45993652 211.20364746 451.60737305 210.47143555 451.75927734 C194.82760685 454.74488779 179.1942517 455.37027669 163.3125 455.3125 C162.34942932 455.31167419 161.38635864 455.31084839 160.394104 455.30999756 C143.25155309 455.27619424 126.98126306 453.89363825 110.18139648 450.41699219 C107.31670443 449.86938234 104.90014654 449.59532839 102 450 C99.30566683 451.87197454 99.30566683 451.87197454 97 454 C94.31246994 454.89584335 92.75615709 455.13044543 89.99952698 455.14717102 C88.78247322 455.15790398 88.78247322 455.15790398 87.54083252 455.16885376 C86.65409851 455.17154266 85.7673645 455.17423157 84.85375977 455.17700195 C83.91674728 455.18357315 82.9797348 455.19014435 82.014328 455.19691467 C78.90668659 455.21665621 75.79909367 455.22831594 72.69140625 455.23828125 C71.62794416 455.24235678 70.56448208 455.2464323 69.46879387 455.25063133 C63.83344593 455.27150171 58.19812238 455.28579586 52.56274414 455.29516602 C46.76264825 455.30619608 40.96293965 455.340554 35.16298008 455.38033772 C30.68716254 455.40659024 26.21143576 455.41486581 21.73554802 455.41844749 C19.59909404 455.42329588 17.46264363 455.43485949 15.32626534 455.45348549 C-0.11815174 455.5797021 -12.32286451 454.69130318 -25 445 C-26.051875 444.21625 -27.10375 443.4325 -28.1875 442.625 C-38.40064141 433.09273468 -43.7745325 420.72097342 -44.2565918 406.81347656 C-44.34965615 401.76620866 -44.33131234 396.72103135 -44.28125 391.67333984 C-44.25007254 388.50736606 -44.2402627 385.34189358 -44.234375 382.17578125 C-44.2253745 380.12759745 -44.21498437 378.07941924 -44.203125 376.03125 C-44.19518669 374.54865189 -44.19518669 374.54865189 -44.18708801 373.03610229 C-44.13166052 367.99287038 -43.82376208 363.16270628 -43.08984375 358.1640625 C-42.45002369 351.67631062 -45.49251682 347.86025439 -49.3125 342.875 C-50.61979099 341.04407171 -51.92181632 339.20937315 -53.21875 337.37109375 C-53.86457031 336.4672998 -54.51039062 335.56350586 -55.17578125 334.63232422 C-71.95784098 310.41602764 -82.23479585 280.986719 -88.4375 252.4375 C-88.67235107 251.35791016 -88.90720215 250.27832031 -89.14916992 249.16601562 C-92.52891452 232.59888548 -93.37869096 216.18249073 -93.3125 199.3125 C-93.31067719 198.34510895 -93.30885437 197.3777179 -93.30697632 196.38101196 C-93.26154826 182.04809023 -92.75266072 168.10226083 -90 154 C-89.75854248 152.65446045 -89.75854248 152.65446045 -89.51220703 151.28173828 C-79.76141834 97.39481481 -52.47885039 51.55251554 -14.25 13.125 C-13.32936768 12.1973584 -13.32936768 12.1973584 -12.39013672 11.25097656 C-8.4175462 7.29230242 -4.29773261 3.60348349 0 0 Z " fill="#FFD164" transform="translate(93,57)"/>
<path d="M0 0 C0.07017123 7.80741085 0.12314613 15.61474488 0.15543652 23.4223938 C0.17095099 27.04961454 0.19192118 30.67661622 0.22631836 34.30371094 C0.58466864 73.17533685 0.58466864 73.17533685 -6.5625 86.1875 C-6.9025708 86.838396 -7.2426416 87.48929199 -7.59301758 88.15991211 C-11.70138855 95.7369998 -17.10303539 102.27905034 -22.5703125 108.90234375 C-28.51370262 116.54651532 -32.07604979 126.9629358 -32.16113281 136.6315918 C-32.17074036 137.51989182 -32.1803479 138.40819183 -32.19024658 139.32341003 C-32.1966214 140.74693535 -32.1966214 140.74693535 -32.203125 142.19921875 C-32.21167511 143.68455864 -32.21167511 143.68455864 -32.22039795 145.1999054 C-32.22982951 147.29365985 -32.23637459 149.38742903 -32.24023438 151.48120117 C-32.24991308 154.65896037 -32.28094335 157.83606503 -32.3125 161.01367188 C-32.31903358 163.05468369 -32.32428265 165.0957001 -32.328125 167.13671875 C-32.3404718 168.07561447 -32.3528186 169.01451019 -32.36553955 169.9818573 C-32.33527925 179.09757019 -30.39299892 186.62956814 -25 194 C-24.67 194.99 -24.34 195.98 -24 197 C-22.18496287 198.05669368 -22.18496287 198.05669368 -20 199 C-19.2899884 199.48824249 -18.57997681 199.97648499 -17.84844971 200.47952271 C-7.25520903 207.07440233 4.51827769 205.85608619 16.578125 205.8046875 C18.9599542 205.81595048 21.34177231 205.82983669 23.72357178 205.84622192 C29.95755522 205.88212651 36.19104688 205.88265019 42.42510986 205.87554932 C48.80042207 205.87463372 55.17555264 205.90753326 61.55078125 205.9375 C74.03390572 205.9912371 86.51677257 206.0075591 99 206 C98.39303567 211.83527097 97.9845333 215.36932617 94 220 C88.82951017 223.32874516 84.45677005 223.43459784 78.51318359 223.40405273 C77.10700775 223.41434761 77.10700775 223.41434761 75.67242432 223.42485046 C72.58094009 223.44311242 69.48996399 223.43927973 66.3984375 223.43359375 C64.23857459 223.43815775 62.07871312 223.44346397 59.91885376 223.44947815 C55.3913178 223.45840955 50.86395819 223.45598796 46.33642578 223.44604492 C40.55989998 223.43459 34.78398866 223.45471352 29.00754356 223.48396206 C24.54456771 223.50239674 20.08173687 223.50201654 15.61873245 223.49632454 C13.49066942 223.49617203 11.36259612 223.50215789 9.23456955 223.51461601 C-6.15837852 223.59199853 -18.36879107 222.65619366 -31 213 C-32.5778125 211.824375 -32.5778125 211.824375 -34.1875 210.625 C-44.4173135 201.07717406 -49.74589125 188.71643775 -50.27270508 174.79736328 C-50.38273587 169.73723704 -50.37649397 164.67936633 -50.33618164 159.6184082 C-50.31252838 156.44131132 -50.315645 153.26505375 -50.32226562 150.08789062 C-50.31668886 148.03645341 -50.309579 145.98501968 -50.30078125 143.93359375 C-50.30169266 142.99994492 -50.30260406 142.06629608 -50.30354309 141.10435486 C-50.20280945 131.5782945 -48.80277619 122.6255403 -44.8125 113.9375 C-44.50280273 113.25051025 -44.19310547 112.56352051 -43.87402344 111.85571289 C-41.18643055 106.0713976 -37.89821924 101.04740526 -34 96 C-23.37350611 82.02586481 -17.91270492 72.48085716 -17.7890625 54.5390625 C-17.7609983 52.27082606 -17.73233387 50.00259699 -17.703125 47.734375 C-17.66187914 44.17741062 -17.62496731 40.6205844 -17.59863281 37.06347656 C-17.57094322 33.6175544 -17.52508 30.17224612 -17.4765625 26.7265625 C-17.47330963 25.67111237 -17.47005676 24.61566223 -17.46670532 23.52822876 C-17.35335149 16.6784184 -16.85198726 10.41590292 -12.28125 4.94140625 C-11.6934375 4.48636719 -11.105625 4.03132813 -10.5 3.5625 C-9.9121875 3.08941406 -9.324375 2.61632812 -8.71875 2.12890625 C-5.68678423 0.13745601 -3.64961583 0 0 0 Z " fill="#FFC350" transform="translate(99,289)"/>
<path d="M0 0 C9.11774261 0.07390268 18.08783749 1.02674687 27.125 2.1875 C27.88409668 2.28401855 28.64319336 2.38053711 29.42529297 2.47998047 C59.97894098 6.50315272 90.14517637 15.85414639 118.5625 27.6875 C119.65087158 28.13971924 119.65087158 28.13971924 120.76123047 28.60107422 C125.21522051 30.5481198 129.87090587 32.67931173 132.125 37.1875 C132.76733846 41.8582182 132.74520335 45.1745012 130.25 49.25 C125.59368811 52.13691337 122.47521908 52.3296816 117.125 51.1875 C113.72678074 49.81861906 110.43924561 48.31849462 107.13256836 46.74633789 C90.13259409 38.81964357 71.40403025 33.22766798 53.125 29.1875 C52.15949219 28.93871094 51.19398438 28.68992187 50.19921875 28.43359375 C34.4757433 24.45586685 17.87361731 21.76746319 1.64379883 21.60302734 C-3.70275472 21.48466306 -6.81018631 20.10991275 -10.6875 16.5 C-12.43444112 13.09806203 -12.6867444 9.87325836 -11.875 6.1875 C-9.4375 3.25 -9.4375 3.25 -6.875 1.1875 C-5.07505046 -0.61244954 -2.43022216 0.01403131 0 0 Z " fill="#AB7446" transform="translate(174.875,288.8125)"/>
<path d="M0 0 C0.65556885 0.35529785 1.3111377 0.7105957 1.98657227 1.07666016 C6.40424377 3.62325687 9.2980393 6.32175488 12.25 10.5 C12.80263322 14.43751167 12.61220775 16.68503256 11 20.3125 C9.0917835 22.69777062 8.15651969 23.61189676 5.25 24.5 C-0.38262958 24.96489407 -3.14170383 24.07920593 -7.75 20.875 C-24.59471862 9.74762225 -45.2370127 5.32269777 -65.23681641 8.95117188 C-70.77299369 10.32011753 -75.99286382 12.36192977 -81.2578125 14.53515625 C-85.86711891 16.41918834 -88.90400347 16.89788361 -93.75 15.5 C-96.44084129 13.80052129 -97.44680223 12.47841734 -98.38671875 9.4453125 C-99.20497399 4.98619681 -99.31770631 3.35209808 -96.69140625 -0.58984375 C-93.79199216 -3.79883468 -90.6818125 -5.17572332 -86.625 -6.6875 C-85.96483887 -6.9352417 -85.30467773 -7.1829834 -84.62451172 -7.43823242 C-56.13402249 -17.92110325 -26.4395046 -14.49484681 0 0 Z " fill="#AB7446" transform="translate(187.75,109.5)"/>
<path d="M0 0 C2.91696148 3.30588968 3.05516218 5.57823611 3.30078125 9.95703125 C2.65952544 13.22214113 1.18384672 14.7481943 -1.125 17.125 C-4.43101501 18.36564636 -4.43101501 18.36564636 -8.33569336 19.21948242 C-9.04002723 19.37858439 -9.7443611 19.53768637 -10.47003841 19.70160961 C-12.68453765 20.19606703 -14.90367754 20.66227193 -17.125 21.125 C-18.48645587 21.42019595 -19.84771836 21.71628544 -21.20877075 22.01333618 C-25.38371786 22.91386805 -29.5676141 23.76729736 -33.75390625 24.61328125 C-34.87720998 24.84133485 -34.87720998 24.84133485 -36.02320671 25.07399559 C-39.96623943 25.87443802 -43.91008765 26.6706956 -47.85473633 27.46313477 C-51.90485503 28.27758924 -55.95190992 29.10635659 -59.99847507 29.93826008 C-63.14113374 30.58170474 -66.28581437 31.21479369 -69.43113518 31.84508324 C-70.92495141 32.14625467 -72.41800364 32.45124345 -73.91021919 32.76024818 C-75.99092424 33.19009738 -78.07408459 33.60515341 -80.15844727 34.0168457 C-81.33818619 34.25570999 -82.51792511 34.49457428 -83.7334137 34.74067688 C-88.91660158 35.32801825 -92.7570386 35.1361019 -97 32 C-99.59592206 28.48787015 -100.20154977 26.48833675 -100.125 22.125 C-97.96438927 17.44367674 -95.77666799 15.7043449 -91.05814362 13.80309105 C-87.96245034 12.71721109 -84.83297927 12.05775881 -81.62011719 11.4074707 C-80.54781105 11.18735825 -80.54781105 11.18735825 -79.45384216 10.96279907 C-77.11136671 10.48427883 -74.76682177 10.01702823 -72.421875 9.55078125 C-70.7766398 9.21912844 -69.13147904 8.88710616 -67.48638916 8.55473328 C-64.04451254 7.86130495 -60.60153223 7.17371212 -57.15771484 6.48999023 C-52.76991434 5.61817325 -48.38564111 4.72987285 -44.00211716 3.83683491 C-40.60615361 3.14729713 -37.20825187 2.46772189 -33.80973053 1.79091454 C-32.19374236 1.46767589 -30.57839979 1.1411903 -28.96376801 0.81124306 C-6.33318225 -3.79990935 -6.33318225 -3.79990935 0 0 Z " fill="#AB7547" transform="translate(395.125,115.875)"/>
<path d="M0 0 C4.12391581 3.56156366 8.00256308 7.13268923 9.75 12.375 C10.42328671 23.85218976 10.95011003 38.68885849 3.75 48.375 C-0.06998712 52.46859501 -4.32866174 55.04757199 -9.93359375 55.67578125 C-17.07092416 55.70615287 -21.32577537 54.88147825 -26.875 50.125 C-32.44284542 43.67802109 -33.87135451 39.63013399 -33.56640625 31.12109375 C-31.67829498 8.7667887 -31.67829498 8.7667887 -24.25 2.375 C-16.74291856 -3.11719378 -8.42050384 -4.21025192 0 0 Z " fill="#7F5246" transform="translate(167.25,152.625)"/>
<path d="M0 0 C4.42429922 3.05215076 7.67832666 6.73565286 9.6875 11.75 C10.69483911 23.94176594 10.30934362 37.27673668 3.41015625 47.71875 C0.8207196 50.77205398 -1.66324969 52.13590852 -5.3125 53.75 C-6.3025 54.245 -6.3025 54.245 -7.3125 54.75 C-15.1970175 55.49953366 -20.30900529 54.26382226 -27 50.0625 C-31.38085938 45.68164062 -33.5370205 41.1719909 -33.75 34.9375 C-32.68086162 10.3128289 -32.68086162 10.3128289 -25.9921875 3.125 C-18.03989073 -3.38478712 -9.15695446 -5.44282527 0 0 Z " fill="#7E5146" transform="translate(340.3125,171.25)"/>
<path d="M0 0 C1.15179749 -0.00073013 2.30359497 -0.00146027 3.49029541 -0.00221252 C7.28909754 0.00126481 11.08666652 0.04013636 14.88525391 0.0793457 C17.52226085 0.08867322 20.15927646 0.09578962 22.79629517 0.1007843 C29.02243405 0.11630011 35.24813186 0.15729714 41.47407687 0.20753175 C48.56470787 0.26349635 55.65536038 0.29092947 62.74615741 0.31600893 C77.32660418 0.36821554 91.90670412 0.45611326 106.48681641 0.56762695 C105.61185192 6.84987194 103.68667811 10.58238591 98.92431641 14.88012695 C95.62821132 17.16204586 93.12965743 17.69268583 89.21818542 17.70806885 C88.34766037 17.71377899 87.47713531 17.71948914 86.58023071 17.72537231 C85.627966 17.72649017 84.67570129 17.72760803 83.69458008 17.72875977 C82.68940842 17.73372467 81.68423676 17.73868958 80.64860535 17.74380493 C77.31732503 17.7584314 73.98609233 17.76522943 70.65478516 17.77075195 C68.34174091 17.77650306 66.02869668 17.7822608 63.71565247 17.7880249 C58.86259743 17.79853631 54.00955896 17.80437805 49.15649414 17.80786133 C42.93887244 17.81334594 36.72146975 17.83737288 30.50391674 17.86583328 C25.72466899 17.88445991 20.94547399 17.88966529 16.16619301 17.8911972 C13.87407547 17.89422426 11.58195888 17.90225452 9.28987694 17.91538239 C6.08216075 17.93244281 2.87497952 17.9305624 -0.33276367 17.92407227 C-1.27895569 17.93328705 -2.22514771 17.94250183 -3.20001221 17.95199585 C-8.37708571 17.91919446 -12.05415284 17.51318687 -16.51318359 14.56762695 C-18.10257707 11.38884001 -17.92895071 9.07194975 -17.51318359 5.56762695 C-12.41572352 -0.38513948 -7.49786159 -0.12459094 0 0 Z " fill="#FFC350" transform="translate(199.51318359375,395.432373046875)"/>
<path d="M0 0 C8.31368139 0.6389125 13.58439628 2.31474335 19.375 8.5625 C22.60099412 13.40149118 23.27369776 16.43871217 23.25 22.375 C23.25515625 23.66148437 23.2603125 24.94796875 23.265625 26.2734375 C22.83038051 32.37966161 21.2122331 36.53998849 17 41 C13.51335549 43.52481154 10.20248882 43.43474022 6 43 C1.56543597 40.69743791 -0.86273195 38.49650755 -3 34 C-3.14453125 30.8984375 -3.14453125 30.8984375 -2.8125 27.375 C-2.69648438 26.07175781 -2.58046875 24.76851562 -2.4609375 23.42578125 C-2.30903894 21.9503399 -2.15527264 20.47509008 -2 19 C-1.82540448 17.26433462 -1.65092972 15.52865708 -1.4765625 13.79296875 C-1.00680946 9.1927169 -0.50956759 4.59600285 0 0 Z " fill="#9C6846" transform="translate(327,168)"/>
<path d="M0 0 C1.59961155 0.12469887 3.19844109 0.25945571 4.796875 0.3984375 C6.13250488 0.50937744 6.13250488 0.50937744 7.49511719 0.62255859 C13.52032212 1.5304501 17.0580923 5.90573083 20.80078125 10.31640625 C24.74401031 15.8523402 23.55294568 24.87740498 22.69140625 31.30078125 C21.69823926 35.26466013 19.77427301 38.05233493 17 41 C12.96106954 43.01946523 8.37210357 42.69486316 4 42 C0.70260861 40.34191894 -0.67831096 38.42020756 -2 35 C-3.56432408 23.60483193 -1.29199769 11.36265829 0 0 Z " fill="#9C6846" transform="translate(154,150)"/>
<path d="M0 0 C0.74617584 0.00565979 1.49235168 0.01131958 2.26113892 0.01715088 C4.62528887 0.03939602 6.98787709 0.08956516 9.3515625 0.140625 C10.96221757 0.16070556 12.57289659 0.1789536 14.18359375 0.1953125 C18.11517757 0.23922119 22.04560602 0.30816182 25.9765625 0.390625 C25.36720246 6.75286795 24.83747365 9.74575435 19.9765625 14.390625 C14.46379928 18.03979688 9.29523123 17.84144087 2.9140625 17.765625 C1.44356445 17.78302734 1.44356445 17.78302734 -0.05664062 17.80078125 C-9.08784 17.76399429 -9.08784 17.76399429 -13.0234375 14.390625 C-15.0234375 11.390625 -15.0234375 11.390625 -15.0234375 7.953125 C-14.0234375 4.390625 -14.0234375 4.390625 -11.46240234 2.19238281 C-7.48610082 0.10910117 -4.37130496 -0.12661856 0 0 Z " fill="#FFC350" transform="translate(180.0234375,461.609375)"/>
<path d="M0 0 C1.12775345 0.00212242 1.12775345 0.00212242 2.27828979 0.00428772 C4.6829626 0.0098916 7.08754277 0.02244468 9.4921875 0.03515625 C11.12109241 0.04017075 12.74999877 0.04473375 14.37890625 0.04882812 C18.37503577 0.05986228 22.37109592 0.07712946 26.3671875 0.09765625 C26.54101562 6.80224609 26.54101562 6.80224609 24.9765625 9.4609375 C24.36296875 10.10417969 23.749375 10.74742187 23.1171875 11.41015625 C22.51390625 12.06628906 21.910625 12.72242188 21.2890625 13.3984375 C16.02747152 18.05045391 10.62950373 17.43089872 3.9296875 17.41015625 C2.37411133 17.43432617 2.37411133 17.43432617 0.78710938 17.45898438 C-8.77374255 17.46512494 -8.77374255 17.46512494 -12.6328125 14.09765625 C-14.17868126 11.00591873 -13.92640771 8.50336073 -13.6328125 5.09765625 C-9.60114729 -0.00911968 -6.15116144 -0.04328949 0 0 Z " fill="#FFC350" transform="translate(187.6328125,428.90234375)"/>
</svg>
